<?xml version="1.0" encoding="iso-8859-1"?>
<!-- Generator: Adobe Illustrator 19.0.0, SVG Export Plug-In . SVG Version: 6.00 Build 0)  -->
<svg xmlns="http://www.w3.org/2000/svg" xmlns:xlink="http://www.w3.org/1999/xlink" version="1.1" id="Capa_1" x="0px" y="0px" viewBox="0 0 512 512" style="enable-background:new 0 0 512 512;" xml:space="preserve" width="512px" height="512px">
<g>
	<g>
		<polygon points="195,151.5 195,181.5 437,180.5 437,150.5   " fill="#FFFFFF"/>
	</g>
</g>
<g>
	<g>
		<polygon points="346,271.5 346,361.5 437,360.5 437,270.5   " fill="#FFFFFF"/>
	</g>
</g>
<g>
	<g>
		<path d="M497,30.5l-377,1v405c0,16.948-5.865,32.426-15.383,45l347.383-1c33.091,0,60-26.909,60-60v-375    C512,37.209,505.291,30.5,497,30.5z M271,391.5h-91c-8.291,0-15-6.709-15-15c0-8.291,6.709-15,15-15h91c8.291,0,15,6.709,15,15    C286,384.791,279.291,391.5,271,391.5z M271,331.5h-91c-8.291,0-15-6.709-15-15c0-8.291,6.709-15,15-15h91c8.291,0,15,6.709,15,15    C286,324.791,279.291,331.5,271,331.5z M271,271.5h-91c-8.291,0-15-6.709-15-15c0-8.291,6.709-15,15-15h91c8.291,0,15,6.709,15,15    S279.291,271.5,271,271.5z M467,375.5c0,8.291-6.709,15-15,15l-121,1c-8.291,0-15-6.709-15-15v-120c0-8.291,6.709-15,15-15l121-1    c8.291,0,15,6.709,15,15V375.5z M467,195.5c0,8.291-6.709,15-15,15l-272,1c-8.291,0-15-6.709-15-15v-60c0-8.291,6.709-15,15-15    l272-1c8.291,0,15,6.709,15,15V195.5z" fill="#FFFFFF"/>
	</g>
</g>
<g>
	<g>
		<path d="M15,91.5c-8.284,0-15,6.714-15,15v330c0,24.853,20.147,45,45,45s45-20.147,45-45v-345H15z" fill="#FFFFFF"/>
	</g>
</g>
<g>
</g>
<g>
</g>
<g>
</g>
<g>
</g>
<g>
</g>
<g>
</g>
<g>
</g>
<g>
</g>
<g>
</g>
<g>
</g>
<g>
</g>
<g>
</g>
<g>
</g>
<g>
</g>
<g>
</g>
</svg>
